<?xml version="1.0" encoding="utf-8"?>
<!DOCTYPE svg PUBLIC "-//W3C//DTD SVG 1.0//EN" "http://www.w3.org/TR/2001/REC-SVG-20010904/DTD/svg10.dtd">
<svg version="1.0" xmlns="http://www.w3.org/2000/svg" width="206px" height="231px" viewBox="0 0 206 231" preserveAspectRatio="xMidYMid meet">
 <g fill="#ffffff">
  <path d="M113.8 218.9 c-2.1 -0.5 -6.7 -2.2 -10.2 -3.8 -22.9 -10.4 -39.6 -30.6 -47.2 -57.1 -2.9 -10.2 -2.7 -13.6 1.1 -14.6 3.7 -0.9 5.1 0.9 7.1 8.9 4.9 20.3 15.7 36.6 31.6 47.7 6.6 4.6 17.4 9.8 18.4 8.8 0.3 -0.3 1.8 -7.9 3.5 -16.9 1.7 -9 3.5 -16.9 4 -17.5 0.6 -0.8 6.4 -1.3 16.7 -1.6 9.6 -0.2 16.5 -0.8 17.8 -1.6 3.3 -1.8 4.4 -6.4 4.4 -18.7 0 -14.1 0.3 -14.5 11.5 -14.5 l7.8 0 -0.6 -9.1 c-0.4 -5 -1.8 -14.6 -3.2 -21.4 -9.9 -49.1 -35.1 -80.7 -73.3 -92.1 -12 -3.6 -30 -3.9 -41.5 -0.6 -10.8 3.1 -18.5 7.2 -25.5 13.7 -7.6 7 -9.6 11.7 -9 21.4 0.2 3.8 0.7 7.3 1.1 7.7 0.4 0.4 2.4 -0.8 4.5 -2.7 17.3 -16.4 44.1 -24.7 65.7 -20.5 27.8 5.5 49.7 32 47.1 57.1 -1.8 17.1 -14.6 28 -34.5 29.3 -7.3 0.4 -9.2 1 -15 4.3 -13.3 7.6 -29.8 11.1 -43.6 9.1 -29.6 -4.1 -44.4 -31 -33 -59.7 l2.4 -6 -1.9 -6.3 c-1.3 -4.2 -2 -9.2 -2 -14.5 0 -6.9 0.4 -9.1 2.9 -14.2 6 -12.8 20.4 -23 39.6 -28.1 5.4 -1.4 10.3 -1.9 21.5 -1.8 17.6 0.1 25.5 1.9 40.7 9.4 38.3 18.9 61.1 59.4 66.4 117.7 1.5 16.6 1.7 16.3 -9.6 16.3 l-8.3 0 -0.7 11.8 c-1.3 21.2 -2.8 22.5 -25.6 23 l-15.5 0.4 -3.2 17.6 c-3.8 21 -3.9 21.1 -12.4 19.1z m-37.5 -95.9 c4.2 -1 8.7 -2.4 9.9 -3.1 2.1 -1.1 1.6 -1.4 -6.2 -3.9 -9 -2.8 -19.6 -7.8 -28.3 -13.4 -5.2 -3.3 -22.7 -20.8 -22.7 -22.7 0 -0.5 -0.4 -0.9 -0.9 -0.9 -1.4 0 -3.1 8.3 -3.1 14.9 0 14.3 9.7 26.8 23.5 30.2 6.1 1.4 20 0.9 27.8 -1.1z m26.2 -14.7 c7.2 -7.7 9.4 -21 4.7 -28.5 -3 -4.8 -10 -9.4 -16.7 -10.9 -6.8 -1.5 -25 -0.7 -33 1.5 -4.4 1.3 -6.6 1.4 -8.2 0.7 -3 -1.4 -3.1 -5.6 0 -7.5 3.9 -2.5 18.6 -4.9 29.7 -4.9 19.8 0.1 33.1 7.4 38.5 21 2.5 6.1 1.7 18.1 -1.5 24.8 -1.3 2.8 -2.6 5.4 -2.8 5.9 -0.3 0.5 1.4 0.6 3.8 0.2 17.9 -2.8 24.5 -20.2 15.1 -40.2 -5.4 -11.6 -17 -21.4 -29.9 -25.4 -8 -2.5 -21.9 -2.7 -31.1 -0.4 -13.5 3.4 -28.5 12.1 -35.1 20.4 l-3.3 4.1 3.8 5.4 c10.9 15.9 30.5 28.6 52.8 34.5 9.5 2.5 10.2 2.5 13.2 -0.7z"/>
 </g>
</svg>